<svg width="165" height="152" viewBox="0 0 165 152" fill="none" xmlns="http://www.w3.org/2000/svg">
<path d="M25.036 111.55V100.481V85.9596C25.036 82.4329 25.5352 79.3557 21.29 79.1137C17.0448 78.8717 15.0232 83.6776 7.74569 82.018C3.90485 81.1421 0.670414 77.2467 0.67041 72.6828C0.670403 64.7997 9.22608 60.0433 17.449 65.2146C25.036 69.9859 25.036 61.0656 25.036 58.1613V40.2461C25.036 39.1415 25.9315 38.2461 27.036 38.2461H53.7417C59.402 38.661 55.9654 45.0919 54.3482 49.0335C51.1137 56.9166 55.4937 61.3422 58.5934 62.5177C69.5096 65.2146 72.1376 53.5974 68.4989 49.0335C63.5236 42.7932 64.8601 38.8684 67.286 38.8684H92.8294C93.9914 38.8684 94.9235 39.856 94.9061 41.0178C94.847 44.9675 94.9809 52.237 94.9809 59.406C94.9809 70.1934 104.684 66.6667 104.684 66.8742C104.684 67.0816 119.224 63.0005 120.452 74.3424C121.261 81.8106 113.377 86.5818 104.684 83.8849C97.7302 81.7273 96.5981 84.3 96.5981 86.5818V111.55C96.5981 112.655 95.7027 113.55 94.5981 113.55H66.5902C65.8924 113.55 65.234 113.187 64.9099 112.569C61.7829 106.608 65.1149 103.704 67.0838 98.8214C69.5096 92.8054 66.8584 87.7952 62.8386 86.5818C57.5826 84.9953 48.2836 87.8266 52.1245 98.8214C55.0864 107.3 54.9546 113.55 50.103 113.55H27.036C25.9315 113.55 25.036 112.655 25.036 111.55Z" fill="black"/>
<path d="M94.5029 39.8662H117.782C120.616 39.8662 125.786 37.2832 124.058 26.916C122.236 15.9841 130.929 16.0751 134.584 17.4008C136.474 18.0762 139.685 20.925 137.418 26.916C134.584 34.4049 136.406 40.2775 142.277 40.2775H161.329C162.434 40.2775 163.329 41.173 163.329 42.2775V110.519C163.329 111.631 162.426 112.53 161.314 112.521C155.999 112.476 141.822 112.375 139.038 112.539C135.596 112.741 136.194 116.496 138.228 121.243C141.264 128.328 138.127 136.974 127.904 135.211C122.034 134.199 119.604 127.924 122.034 121.243C124.463 114.563 121.629 112.539 118.997 112.539C113.65 112.539 101.143 112.471 95.8125 112.539" stroke="black" stroke-width="2" stroke-linecap="round"/>
<path d="M97.6348 135.412C98.9168 137.639 101.562 142.457 101.886 143.914" stroke="black" stroke-width="2" stroke-linecap="round"/>
<path d="M92.574 136.627C91.8992 138.449 91.5618 143.874 95.6104 151" stroke="black" stroke-width="2" stroke-linecap="round"/>
<path d="M84.8815 135.412C82.2499 137.841 76.8652 143.509 76.3794 146.748" stroke="black" stroke-width="2" stroke-linecap="round"/>
<path d="M93.3837 16.5879C96.0153 14.1587 101.4 8.49066 101.886 5.25177" stroke="black" stroke-width="2" stroke-linecap="round"/>
<path d="M85.6912 15.373C86.3659 13.5512 86.7033 8.12603 82.6547 1.00047" stroke="black" stroke-width="2" stroke-linecap="round"/>
<path d="M80.6309 16.5879C79.3488 14.3612 76.7037 9.5433 76.3798 8.0858" stroke="black" stroke-width="2" stroke-linecap="round"/>
</svg>
