<svg width="298" height="251" viewBox="0 0 298 251" fill="none" xmlns="http://www.w3.org/2000/svg">
<path d="M67.8834 157.19L55.6938 109.48L214.291 68.9598L216.616 78.0604" stroke="black" stroke-width="2"/>
<path d="M73.6655 179.822L82.9459 216.145L86.3706 215.27" stroke="black" stroke-width="2"/>
<path d="M141.781 209.26L148.481 207.631" stroke="black" stroke-width="2" stroke-linecap="round"/>
<path d="M159.164 205.096L214.482 191.77" stroke="black" stroke-width="2" stroke-linecap="round"/>
<path d="M137.796 210.164L87.8835 221.891L76.593 174.492" stroke="black" stroke-width="2" stroke-linecap="round"/>
<path d="M72.603 157.834L62.3379 114.803L221.562 76.8202L236.776 140.599" stroke="black" stroke-width="2" stroke-linecap="round"/>
<path d="M23.3725 95.2867C21.7842 95.6274 20.2683 96.1268 18.8349 96.7528L19.6044 100.341C17.694 101.259 15.9798 102.443 14.4848 103.865L11.4039 101.872C10.2884 103.013 9.31683 104.279 8.45364 105.613C7.59042 106.948 6.83433 108.353 6.25156 109.838L9.33246 111.831C8.64895 113.778 8.27224 115.827 8.21802 117.946L4.6303 118.715C4.64721 120.279 4.8135 121.867 5.15419 123.455C5.49487 125.043 5.99422 126.559 6.6203 127.993L10.208 127.223C11.1266 129.134 12.3105 130.848 13.7322 132.343L11.7396 135.424C12.8802 136.539 14.1462 137.511 15.4808 138.374C16.8154 139.237 18.2207 139.993 19.7059 140.576L21.6986 137.495C23.6451 138.179 25.694 138.555 27.8132 138.609L28.5827 142.197C30.1468 142.18 31.7342 142.014 33.3225 141.673C34.9107 141.333 36.4266 140.833 37.8601 140.207L37.0905 136.619C39.001 135.701 40.7151 134.517 42.2101 133.095L45.291 135.088C46.4065 133.947 47.3781 132.681 48.2413 131.347C49.1045 130.012 49.8606 128.607 50.4434 127.122L47.3625 125.129C48.046 123.182 48.4227 121.133 48.4769 119.014L52.0646 118.245C52.0477 116.681 51.8814 115.093 51.5407 113.505C51.2001 111.917 50.7007 110.401 50.0746 108.967L46.4869 109.737C45.5683 107.827 44.3844 106.112 42.9627 104.617L44.9553 101.536C43.8147 100.421 42.5488 99.4494 41.2141 98.5862C39.8795 97.723 38.4742 96.9669 36.989 96.3841L34.9964 99.465C33.0498 98.7815 31.0009 98.4048 28.8818 98.3506L28.1122 94.7628C26.5481 94.7797 24.9607 94.9461 23.3725 95.2867ZM25.86 106.883C32.2613 105.51 38.571 109.591 39.9441 115.993C41.3172 122.394 37.2363 128.704 30.835 130.077C24.4336 131.45 18.1239 127.369 16.7508 120.968C15.3777 114.566 19.4586 108.256 25.86 106.883Z" fill="black"/>
<path d="M115.736 125.693C114.156 126.07 112.651 126.604 111.233 127.263L112.084 130.832C110.195 131.794 108.508 133.017 107.046 134.472L103.921 132.551C102.832 133.716 101.889 135.004 101.057 136.358C100.224 137.712 99.5005 139.135 98.9519 140.633L102.078 142.554C101.439 144.516 101.109 146.573 101.103 148.693L97.5341 149.544C97.5867 151.108 97.7893 152.691 98.1662 154.271C98.5431 155.851 99.077 157.355 99.7357 158.774L103.305 157.922C104.267 159.811 105.49 161.498 106.945 162.96L105.024 166.086C106.189 167.175 107.477 168.117 108.831 168.949C110.185 169.782 111.608 170.506 113.106 171.054L115.027 167.929C116.989 168.568 119.046 168.897 121.166 168.903L122.017 172.472C123.581 172.42 125.164 172.217 126.744 171.84C128.324 171.463 129.828 170.929 131.247 170.271L130.395 166.701C132.284 165.739 133.971 164.517 135.433 163.061L138.559 164.983C139.648 163.817 140.59 162.529 141.423 161.175C142.255 159.821 142.979 158.399 143.527 156.901L140.402 154.979C141.041 153.017 141.37 150.96 141.376 148.84L144.945 147.989C144.893 146.426 144.69 144.843 144.313 143.262C143.936 141.682 143.402 140.178 142.744 138.76L139.174 139.611C138.212 137.722 136.99 136.035 135.534 134.573L137.456 131.448C136.29 130.359 135.002 129.416 133.648 128.584C132.294 127.751 130.872 127.027 129.374 126.479L127.452 129.605C125.49 128.966 123.433 128.636 121.313 128.63L120.462 125.061C118.899 125.114 117.316 125.316 115.736 125.693V125.693ZM118.488 137.23C124.856 135.711 131.257 139.646 132.776 146.015C134.296 152.383 130.36 158.784 123.992 160.303C117.623 161.822 111.222 157.887 109.703 151.519C108.184 145.15 112.119 138.749 118.488 137.23Z" stroke="black" stroke-width="2" stroke-linecap="round" stroke-linejoin="round"/>
<path d="M128.415 178.437C127.655 178.618 126.932 178.875 126.25 179.192L126.659 180.908C125.751 181.371 124.94 181.959 124.236 182.659L122.733 181.735C122.21 182.295 121.756 182.915 121.356 183.566C120.956 184.217 120.608 184.901 120.344 185.622L121.847 186.546C121.54 187.489 121.381 188.478 121.378 189.498L119.662 189.907C119.687 190.659 119.785 191.42 119.966 192.18C120.147 192.94 120.404 193.664 120.721 194.346L122.437 193.936C122.9 194.845 123.488 195.656 124.188 196.359L123.264 197.862C123.824 198.386 124.444 198.839 125.095 199.24C125.746 199.64 126.43 199.988 127.15 200.252L128.075 198.749C129.018 199.056 130.007 199.215 131.027 199.217L131.436 200.934C132.188 200.908 132.949 200.811 133.709 200.63C134.469 200.448 135.192 200.192 135.875 199.875L135.465 198.158C136.374 197.696 137.185 197.108 137.888 196.408L139.391 197.332C139.915 196.771 140.368 196.152 140.769 195.501C141.169 194.85 141.517 194.166 141.781 193.445L140.278 192.521C140.585 191.578 140.743 190.588 140.746 189.569L142.463 189.159C142.437 188.408 142.34 187.646 142.159 186.886C141.977 186.126 141.721 185.403 141.404 184.721L139.687 185.13C139.225 184.222 138.637 183.411 137.937 182.708L138.861 181.204C138.3 180.681 137.681 180.227 137.03 179.827C136.378 179.427 135.694 179.079 134.974 178.815L134.05 180.318C133.106 180.011 132.117 179.852 131.098 179.849L130.688 178.133C129.936 178.158 129.175 178.256 128.415 178.437V178.437ZM129.739 183.985C132.801 183.255 135.88 185.147 136.61 188.21C137.341 191.272 135.448 194.351 132.386 195.082C129.323 195.812 126.245 193.919 125.514 190.857C124.783 187.794 126.676 184.716 129.739 183.985Z" stroke="black" stroke-opacity="0.7" stroke-width="2" stroke-linecap="round" stroke-linejoin="round"/>
<path d="M215.832 173.606L223.726 155.259C231.073 138.181 251.863 131.598 267.701 141.335C283.567 151.089 287.057 172.664 275.076 186.922L262.227 202.214C253.446 212.664 238.337 215.108 226.71 207.959C215.058 200.796 210.427 186.169 215.832 173.606Z" stroke="black" stroke-width="2"/>
<path d="M220.673 164.159L223.819 156.309C230.73 139.067 251.502 132.202 267.326 141.93C283.183 151.679 286.408 173.373 274.074 187.313L268.47 193.646C259.295 204.015 243.996 206.29 232.201 199.039C220.378 191.77 215.51 177.041 220.673 164.159Z" fill="black"/>
<circle cx="121.221" cy="148.598" r="4.97548" transform="rotate(-13.417 121.221 148.598)" stroke="black" stroke-width="2"/>
<circle cx="121.221" cy="148.596" r="7.51053" transform="rotate(-13.417 121.221 148.596)" stroke="black" stroke-width="2"/>
<path d="M112.7 112.096L134.716 204.389" stroke="black" stroke-width="2" stroke-linecap="round" stroke-dasharray="12 12"/>
<path d="M152.354 100.402L167.983 165.924" stroke="black" stroke-width="2" stroke-linecap="round" stroke-dasharray="12 12"/>
<path d="M176.365 96.4512L194.18 171.132" stroke="black" stroke-width="2" stroke-linecap="round" stroke-dasharray="12 12"/>
<path d="M202.447 98.1348L216.648 157.668" stroke="black" stroke-width="2" stroke-linecap="round" stroke-dasharray="12 12"/>
<path d="M108.726 195.324L152.054 184.988" stroke="black" stroke-width="2" stroke-linecap="round" stroke-dasharray="12 12"/>
<path d="M86.2114 157.135L219.368 125.371" stroke="black" stroke-width="2" stroke-linecap="round" stroke-dasharray="12 12"/>
<path d="M109.818 199.904L114.397 198.812" stroke="black" stroke-width="2" stroke-linecap="round"/>
<path d="M159.184 183.662L189.478 176.435" stroke="black" stroke-width="2" stroke-linecap="round"/>
<path d="M160.192 187.887L188.021 181.248" stroke="black" stroke-width="2" stroke-linecap="round"/>
<path d="M160.78 190.354L175.928 186.74" stroke="black" stroke-width="2" stroke-linecap="round"/>
<path d="M110.406 202.369L119.917 200.1" stroke="black" stroke-width="2" stroke-linecap="round"/>
<path d="M164.672 126.914L169.768 118.624" stroke="black" stroke-opacity="0.6" stroke-width="2" stroke-linecap="round"/>
<path d="M162.017 140.914L181.062 109.937" stroke="black" stroke-opacity="0.6" stroke-width="2" stroke-linecap="round"/>
<path d="M166.65 143.06L172.836 132.993M184.967 113.437L178.624 123.582" stroke="black" stroke-opacity="0.6" stroke-width="2" stroke-linecap="round"/>
<path d="M170.119 147.096L174.869 139.369M190.504 113.937L185.866 121.481" stroke="black" stroke-opacity="0.6" stroke-width="2" stroke-linecap="round"/>
<path d="M172.069 153.605L178.477 143.181M196.737 113.255L190.762 123.214" stroke="black" stroke-opacity="0.6" stroke-width="2" stroke-linecap="round"/>
<path d="M178.266 153.208L183.051 145.424M199.273 119.232L194.746 126.294" stroke="black" stroke-opacity="0.6" stroke-width="2" stroke-linecap="round"/>
<path d="M183.926 153.682L188.91 145.474M201.988 123.94L196.737 132.813" stroke="black" stroke-opacity="0.6" stroke-width="2" stroke-linecap="round"/>
<path d="M187.977 156.773L207.058 125.389" stroke="black" stroke-opacity="0.6" stroke-width="2" stroke-linecap="round"/>
<path d="M198.734 148.957L204.524 139.512" stroke="black" stroke-opacity="0.6" stroke-width="2" stroke-linecap="round"/>
<path d="M179.265 110.586C177.685 110.963 176.181 111.497 174.762 112.155L175.613 115.724C173.724 116.686 172.038 117.909 170.576 119.365L167.45 117.443C166.361 118.609 165.419 119.897 164.586 121.251C163.754 122.605 163.03 124.027 162.481 125.525L165.607 127.447C164.968 129.409 164.638 131.466 164.633 133.585L161.063 134.437C161.116 136 161.319 137.583 161.696 139.163C162.072 140.743 162.606 142.247 163.265 143.666L166.834 142.815C167.796 144.704 169.019 146.39 170.475 147.852L168.553 150.978C169.719 152.067 171.007 153.01 172.361 153.842C173.715 154.675 175.137 155.398 176.635 155.947L178.557 152.821C180.518 153.46 182.575 153.79 184.695 153.796L185.547 157.365C187.11 157.312 188.693 157.11 190.273 156.733C191.853 156.356 193.357 155.822 194.776 155.163L193.925 151.594C195.813 150.632 197.5 149.409 198.962 147.954L202.088 149.875C203.177 148.709 204.119 147.422 204.952 146.068C205.784 144.713 206.508 143.291 207.057 141.793L203.931 139.871C204.57 137.91 204.9 135.853 204.905 133.733L208.475 132.882C208.422 131.318 208.219 129.735 207.842 128.155C207.465 126.575 206.932 125.071 206.273 123.652L202.704 124.504C201.742 122.615 200.519 120.928 199.063 119.466L200.985 116.34C199.819 115.251 198.531 114.309 197.177 113.476C195.823 112.644 194.401 111.92 192.903 111.371L190.981 114.497C189.02 113.858 186.963 113.529 184.843 113.523L183.991 109.954C182.428 110.006 180.845 110.209 179.265 110.586V110.586ZM182.017 122.122C188.385 120.603 194.787 124.539 196.306 130.907C197.825 137.275 193.889 143.677 187.521 145.196C181.153 146.715 174.751 142.779 173.232 136.411C171.713 130.043 175.649 123.642 182.017 122.122Z" stroke="black" stroke-width="2" stroke-linecap="round" stroke-linejoin="round"/>
<path d="M79.2148 134.047L132.231 121.4" stroke="black" stroke-width="2" stroke-linecap="round"/>
<path d="M110.168 175.621L142.929 167.806" stroke="black" stroke-width="2" stroke-linecap="round"/>
<path d="M152.968 165.41L206.337 152.679" stroke="black" stroke-width="2" stroke-linecap="round"/>
<path d="M163.801 114.055L196.209 106.324" stroke="black" stroke-width="2" stroke-linecap="round"/>
<path d="M165.493 214.957C164.044 213.327 162.414 210.973 162.052 208.438C161.803 206.694 159.94 205.481 158.793 205.541" stroke="black" stroke-width="2" stroke-linecap="round"/>
<path d="M158.974 208.439C158.974 207.111 159.082 204.492 155.896 204.637" stroke="black" stroke-width="2" stroke-linecap="round"/>
<path d="M156.62 207.172C156.137 205.784 154.769 203.152 152.307 204.456" stroke="black" stroke-width="2" stroke-linecap="round"/>
<path d="M154.628 208.801C153.843 208.318 152.817 206.338 152.093 203.731C151.369 201.123 147.566 198.902 145.755 198.117C144.79 197.695 142.858 197.465 142.858 199.928C142.858 202.101 148.182 203.984 148.472 207.171C148.761 210.358 148.592 211.758 148.472 212.06C148.17 212.664 147.095 213.4 145.212 211.517C143.329 209.634 140.866 209.163 139.599 209.525C138.512 209.887 136.991 211.119 139.599 213.147C141.536 214.653 147.892 217.456 153.542 224.554" stroke="black" stroke-width="2" stroke-linecap="round"/>
<path d="M215.418 243.136C200.642 229.084 179.927 216.32 171.021 216.32C154.906 216.32 155.136 224.16 157.336 228.261C157.405 228.39 157.486 228.503 157.584 228.611C162.198 233.697 173.134 244.84 181.162 250" stroke="black" stroke-width="2" stroke-linecap="round"/>
<path d="M16.8381 239.442C20.3148 234.517 29.3927 220.883 33.316 214.273C36.0028 209.746 38.0174 204.713 38.7482 201.291C40.1968 194.51 44.3616 182.278 57.0368 199.118C60.0351 203.102 62.9522 206.74 50.8202 230.28" stroke="black" stroke-width="2" stroke-linecap="round"/>
<path d="M61.9608 195.353C64.6106 192.092 69.4006 186.996 71.337 183.429L74.4964 178.027C76.6366 174.589 77.5526 171.786 78.3705 170.266C78.734 169.59 78.9603 169.077 79.4637 168.073C79.9206 167.162 80.3226 166.241 80.0036 165.487C79.7595 164.908 78.7407 163.897 76.619 164.474C74.4972 165.052 73.0503 166.844 72.5921 167.667C72.1331 168.35 70.1404 170.823 69.5946 171.366C68.3264 172.627 62.0787 177.857 58.1822 174.793" stroke="black" stroke-width="2" stroke-linecap="round"/>
<path d="M57.4244 169.726C60.6588 168.016 66.9418 164.933 69.1305 162.816C71.3784 162.381 76.9294 163.109 76.3692 160.128C76.2525 159.507 74.298 157.967 71.3926 157.444C69.3018 157.068 67.7858 156.921 66.0489 157.854C65.0642 158.383 64.6736 158.571 63.4022 159.416C62.4153 159.851 61.8141 160.353 61.0083 160.907C60.1804 161.476 58.9814 162.381 57.3041 163.963" stroke="black" stroke-width="2" stroke-linecap="round"/>
<path d="M63.4018 159.418C62.8744 159.131 60.5947 159.15 57.9072 160.481C54.9715 161.935 54.47 162.485 53.3332 163.235C52.1964 163.985 49.9229 165.485 49.0328 166.209C47.458 167.49 46.0228 168.933 45.4563 169.661C44.4587 171.201 45.0146 172.367 46.514 175.235" stroke="black" stroke-width="2" stroke-linecap="round"/>
<path d="M47.4133 180.559C47.4133 182.469 46.9795 186.993 45.6546 190.764" stroke="black" stroke-width="2" stroke-linecap="round"/>
<path d="M73.6951 166.209L48.1255 180.18C45.0362 181.389 42.8873 177.154 46.1287 175.724L57.4063 169.712M77.2519 164.218L81.9805 161.661L79.7412 158.08L76.5401 159.697" stroke="black" stroke-width="2" stroke-linecap="round"/>
<path d="M82.6181 161.313L85.2842 157.367" stroke="black" stroke-width="2" stroke-linecap="round"/>
<path d="M80.3759 157.746L85.2842 157.367" stroke="black" stroke-width="2" stroke-linecap="round"/>
<path d="M92.5773 82.2857C93.1004 87.741 85.3522 88.7966 85.0179 82.5539L84.2595 33.4819L84.0164 21.5801C83.9935 20.4598 84.8954 19.5393 86.016 19.5393L91.2178 19.5393M92.5773 82.2857L91.6838 33.4824L91.2178 19.5393M92.5773 82.2857L101.174 82.2857C102.316 82.2857 103.227 81.3305 103.172 80.1894L100.919 33.4824L100.36 21.4465C100.311 20.3792 99.4307 19.5393 98.3622 19.5393L91.2178 19.5393" stroke="black" stroke-width="2" stroke-linecap="round"/>
<path d="M105.25 46.1238C103.078 42.3627 104.367 37.5534 108.128 35.382L165.852 2.05499C169.613 -0.116461 174.422 1.17218 176.594 4.93325L194.348 35.685C196.52 39.446 195.231 44.2553 191.47 46.4268L133.746 79.7537C129.985 81.9252 125.176 80.6366 123.004 76.8755L105.25 46.1238Z" stroke="black" stroke-width="2"/>
<ellipse cx="111.982" cy="42.0363" rx="1.99183" ry="2.1729" transform="rotate(-30 111.982 42.0363)" fill="black"/>
<path d="M177.327 44.0352L188.617 37.5164M183.074 44.8989L190.428 40.6528" stroke="black" stroke-width="2" stroke-linecap="round"/>
<path d="M125.474 62.8223C127.743 61.2213 134.014 59.402 141.874 63.9289C142.59 64.3415 143.518 63.8128 143.485 62.9868C143.109 53.5776 144.191 44.0816 162.012 43.7425C163.048 43.7228 163.58 42.1405 162.812 41.4439C157.834 36.9295 153.183 28.6316 159.835 18.5405C160.261 17.8955 159.683 17.0001 158.932 17.1831V17.1831C158.085 17.3898 157.637 16.4127 158.385 15.9646C161.094 14.3423 163.984 13.2275 163.614 15.4469C163.077 18.6697 163.432 20.3061 165.187 22.3336" stroke="black" stroke-width="2" stroke-linecap="round"/>
</svg>
